<svg id="Layer_1" data-name="Layer 1" xmlns="http://www.w3.org/2000/svg" viewBox="0 0 258.8 153.49"><defs><style>.cls-1{fill:#fff;}</style></defs><title>logo-white</title><path class="cls-1" d="M82,203.81s-8.53-5.25-8.39-14.18S83.92,166.71,85,161.28s0-8.35,0-8.35,8.16,7.08,7.12,17.76c-.74,7.61-7.72,16.77-9.93,22.21A16.43,16.43,0,0,0,82,203.81" transform="translate(-14.42 -67.24)"/><path class="cls-1" d="M89.38,213.42s-5.37-3.3-5.28-8.92,6.48-14.43,7.13-17.86a11,11,0,0,0,0-5.26s5.14,4.47,4.49,11.19c-.47,4.79-4.87,10.56-6.25,14a10.35,10.35,0,0,0-.09,6.86" transform="translate(-14.42 -67.24)"/><path class="cls-1" d="M245.33,137.17H195.89l17,17.34H226v40.64a55.49,55.49,0,0,1-15.06,5.36,90.5,90.5,0,0,1-19,1.86,58.9,58.9,0,0,1-23.52-4.54,50.92,50.92,0,0,1-17.74-12.48,55.83,55.83,0,0,1-11.14-18.68,66.19,66.19,0,0,1-3.92-22.89,64.79,64.79,0,0,1,3.92-22.59,57.25,57.25,0,0,1,11.14-18.68A51.68,51.68,0,0,1,168.2,89.83a55.63,55.63,0,0,1,23.11-4.64,57.81,57.81,0,0,1,22.8,4.33,47.42,47.42,0,0,1,16.81,11.55l14.24-14.85a66.18,66.18,0,0,0-22.8-13.82q-13.73-5.16-31.26-5.16a84.23,84.23,0,0,0-30.94,5.57,73.9,73.9,0,0,0-24.65,15.58,70.53,70.53,0,0,0-16.3,24.13c-.57,1.36-1.06,2.74-1.54,4.14L98,71H79.48L14.42,220.73H37.11l16.37-39.61,7.22-18,27.44-68.5,27.33,68.5s6.92,18.21,9.94,23.19a65.31,65.31,0,0,0,9.79,12.81,72.09,72.09,0,0,0,23.45,15.38c.4.17.79.35,1.2.5a84.81,84.81,0,0,0,31.46,5.68,126.57,126.57,0,0,0,29.71-3.3,106,106,0,0,0,25.17-9.49V137.17Z" transform="translate(-14.42 -67.24)"/><path class="cls-1" d="M253.84,78.08H250.3V76.29h9.13v1.79h-3.54v9.75h-2Z" transform="translate(-14.42 -67.24)"/><path class="cls-1" d="M260.77,76.29H264l3,8.2h0l3-8.2h3.23V87.83h-2V78.55h0l-3.5,9.28h-1.44l-3.45-9.28h0v9.28h-2Z" transform="translate(-14.42 -67.24)"/></svg>